# xmcd
#
# Track frame offsets:
#	150
#	16650
#	31363
#	54704
#	68799
#	85949
#	104999
#	120996
#	134328
#	155328
#
# Disc length: 2234
#
# Revision: 1
# Processed by: cddbd v1.5.1PL0 Copyright (c) Steve Scherf et al.
# Submitted via: CDex 1.40Beta6
# Normalized: r0:TRMNUM
#
DISCID=8008b80a
DTITLE=Chek Rippee - It's Happenin'
DYEAR=2003
DGENRE=Country
TTITLE0=Its Time To Honky Tonk Again
TTITLE1=Drop On By
TTITLE2=Nothin Stands Between Us
TTITLE3=Good Ol Boy Good Ol Girl
TTITLE4=Haulin Dogs
TTITLE5=Its Happenin
TTITLE6=Lucky Me You Let Me Fly
TTITLE7=My Heart Will Never Know
TTITLE8=I Don't Want To Say Goodbye
TTITLE9=Do My Baby Right
EXTD=
EXTT0=
EXTT1=
EXTT2=
EXTT3=
EXTT4=
EXTT5=
EXTT6=
EXTT7=
EXTT8=
EXTT9=
PLAYORDER=
